<svg width="41" height="40" viewBox="0 0 41 40" fill="none" xmlns="http://www.w3.org/2000/svg">
<path d="M18.1242 5.14159C16.88 5.34622 16.2907 5.49356 15.2511 5.87826C13.0657 6.67223 11.2486 7.8509 9.60333 9.53706C8.11362 11.0595 7.00862 12.7948 6.27195 14.7838C5.6335 16.4863 5.3552 18.0497 5.3552 19.9405C5.34702 21.4056 5.44524 22.2569 5.77265 23.5584C6.43565 26.2759 7.7371 28.5677 9.72611 30.5567C12.6401 33.4625 16.2334 34.9767 20.2523 34.9686C20.9972 34.9686 21.9385 34.9276 22.3395 34.8703C25.72 34.4038 28.7486 32.8568 31.1469 30.3848C31.5316 29.9838 31.949 29.509 32.0882 29.3289C32.2191 29.1489 32.3501 28.9688 32.391 28.9197C33.0868 28.0029 33.6433 27.0207 34.2736 25.6047C34.4946 25.1135 34.9939 23.3865 35.1085 22.6989C36.058 17.3703 34.1918 12.1318 30.0746 8.58757C26.8169 5.78004 22.2904 4.4704 18.1242 5.14159ZM19.9658 7.13879V8.35839L19.1882 8.69398C18.7626 8.88224 18.3697 9.06231 18.3124 9.09506C18.1815 9.17691 18.0259 9.09506 17.854 8.86587C17.7067 8.66124 17.7149 8.65306 18.0505 8.03098C19.0491 6.19748 19.1801 6.00104 19.4583 5.95193C19.9822 5.84552 19.9658 5.80459 19.9658 7.13879ZM22.5442 6.09108C24.1812 6.353 25.72 6.87686 27.0461 7.62172C28.2657 8.30927 28.3966 8.39113 28.4212 8.55483C28.4375 8.63668 28.2247 9.16872 27.9628 9.72532C27.6927 10.2901 27.2834 11.1741 27.0461 11.6898C26.4731 12.9585 26.3339 13.2613 25.7364 14.5546C25.4581 15.1603 25.1389 15.8642 25.0243 16.1098C24.3122 17.6732 24.0175 18.238 23.9193 18.238C23.7147 18.238 22.8225 18.7127 22.4869 19.0074C22.184 19.2775 21.5456 20.1206 21.4637 20.3825C21.4392 20.448 21.3573 20.4316 21.1854 20.317C21.0545 20.2188 20.7762 20.0633 20.5634 19.965C20.1705 19.7768 19.8431 19.4576 19.8431 19.2529C19.8431 19.1956 19.9658 19.122 20.1132 19.0892C21.079 18.8764 22.1267 17.9842 22.6424 16.9119C23.2317 15.7087 23.2563 14.5219 22.7079 13.335C22.5606 13.0158 22.4296 12.7539 22.4214 12.7539C22.3477 12.7539 21.3082 13.1959 21.0954 13.3268C20.9399 13.4169 20.7844 13.4905 20.7352 13.4905C20.6943 13.4905 20.6616 12.0172 20.6616 9.68439V5.88645L21.2182 5.92737C21.521 5.95193 22.1185 6.0256 22.5442 6.09108ZM18.3124 6.19748C18.296 6.2466 18.0341 6.73771 17.7149 7.29431L17.1419 8.30927L16.8145 8.25198C16.6263 8.21924 16.4626 8.17013 16.438 8.14557C16.3889 8.09646 16.0778 6.81138 16.0778 6.65586C16.0778 6.54945 16.5853 6.39393 17.633 6.17293C18.206 6.05015 18.337 6.05834 18.3124 6.19748ZM15.5949 7.51531C15.7914 8.30927 15.7832 8.37476 15.5704 8.48116C15.464 8.53846 15.2839 8.66124 15.1529 8.75946L14.9319 8.93954L14.0315 8.49754C13.5322 8.25198 13.1312 8.01461 13.1312 7.9655C13.1312 7.88364 14.7027 7.04875 15.0956 6.9096C15.3739 6.81956 15.4476 6.9096 15.5949 7.51531ZM13.4995 8.95591L14.6045 9.50432V10.0036V10.5029L13.8597 10.7648L13.123 11.0186L12.9347 10.7239C12.8365 10.552 12.55 10.0445 12.3126 9.58617L11.8706 8.75946L12.0671 8.58757C12.1817 8.49754 12.2963 8.42387 12.3372 8.41568C12.3699 8.41568 12.8938 8.66124 13.4995 8.95591ZM17.1256 9.06231C17.4284 9.22602 17.633 9.63528 17.633 10.0937C17.633 10.8058 17.1583 11.2805 16.4298 11.2805C15.3494 11.2805 14.8664 9.92176 15.685 9.18509C16.0533 8.8495 16.6344 8.80039 17.1256 9.06231ZM29.6408 9.41428C30.9913 10.6339 32.301 12.3282 32.9067 13.6379L33.0295 13.908L32.522 14.5382C31.7198 15.5286 31.3433 15.987 31.3024 16.0279C31.2778 16.0525 31.1305 16.2326 30.975 16.4372C30.8194 16.6418 30.6721 16.8219 30.6394 16.8465C30.6148 16.871 30.1237 17.4767 29.5425 18.197C28.9696 18.9173 28.4212 19.5967 28.3311 19.7113C28.2329 19.8259 27.619 20.5789 26.9642 21.3893C26.3094 22.1996 25.7119 22.9363 25.6382 23.0263C25.0489 23.7221 24.0994 24.9498 24.0994 25.0235C24.0994 25.1708 23.0189 25.3918 21.783 25.4901L21.0627 25.5392L20.6125 25.2445C20.1214 24.9171 19.8431 24.5406 19.8431 24.1968C19.8431 23.9267 20.1786 23.5174 20.5715 23.3128C20.9071 23.1409 21.2918 22.7971 21.4883 22.4943C21.6192 22.2978 21.6356 22.2978 22.004 22.3961C23.6574 22.8381 25.7037 21.864 26.514 20.2433C26.866 19.5476 27.087 18.328 26.8987 18.1397C26.8414 18.0824 26.4322 18.0333 25.8592 18.0088C25.3435 17.9842 24.9179 17.9597 24.9179 17.9351C24.9179 17.9187 25.2126 17.2721 25.5645 16.4945C26.2112 15.0948 26.5304 14.3991 26.8824 13.6133C26.9888 13.3841 27.2343 12.8521 27.4308 12.4264C27.6354 12.0008 27.9546 11.2969 28.1511 10.8713C28.9041 9.20965 29.0105 8.98865 29.0842 8.98865C29.1251 8.98865 29.3788 9.18509 29.6408 9.41428ZM20.0068 10.3392C20.0068 11.0268 19.974 11.5261 19.9331 11.5261C19.884 11.5261 19.4993 11.3214 19.0573 11.0595L18.2715 10.6011L18.3288 10.1837C18.3533 9.95451 18.4025 9.75806 18.4352 9.74169C18.4679 9.73351 18.7708 9.59436 19.1064 9.44702C20.0641 9.0132 20.0068 8.95591 20.0068 10.3392ZM12.1489 10.6421C12.5746 11.4197 13.0248 12.2627 13.1557 12.5083C13.2867 12.7539 13.4586 13.0649 13.5404 13.204C13.6223 13.335 13.8433 13.7443 14.0315 14.1044C14.6372 15.2503 15.0301 15.9706 15.3821 16.6009C15.5704 16.9365 15.9387 17.6159 16.2006 18.1152C16.4626 18.6063 16.7163 19.0647 16.7654 19.1301C16.8391 19.2284 16.7654 19.2366 16.2661 19.1874C15.6358 19.122 14.8828 19.2284 14.3426 19.4412C14.0234 19.564 14.0234 19.5722 14.0725 19.9077C14.3098 21.3565 15.3739 22.9199 16.5362 23.5338C17.1092 23.8448 17.9032 24.0495 18.5007 24.0495H18.9181L18.9591 24.4505C18.9836 24.6715 19.0736 24.958 19.1719 25.0972C19.2701 25.2281 19.3519 25.3673 19.3519 25.4C19.3519 25.5146 18.0014 25.3427 16.8554 25.0726C16.7572 25.0563 16.2661 24.5324 15.7504 23.9103C15.2348 23.2882 14.7928 22.7644 14.7682 22.7398C14.7355 22.7153 13.9661 21.8067 13.0411 20.7099C12.1244 19.6131 11.2076 18.5163 11.003 18.2789C10.5365 17.7223 8.56381 15.3568 7.99084 14.6692C7.49155 14.0717 7.49155 14.1535 8.02359 13.204C8.49833 12.3528 8.49833 12.3446 9.07948 11.5588C9.72611 10.6748 11.1094 9.23421 11.314 9.23421C11.3468 9.23421 11.7315 9.87265 12.1489 10.6421ZM15.2102 11.4197L15.5376 11.7225L15.3494 12.6229C15.0383 14.1699 15.0056 14.309 14.9319 14.309C14.8337 14.309 13.4422 11.6816 13.4995 11.6161C13.565 11.5588 14.6945 11.125 14.8091 11.125C14.8583 11.125 15.0383 11.256 15.2102 11.4197ZM19.1719 11.878L20.0068 12.3691V13.2204V14.0799L19.6712 14.4564C19.4829 14.6692 19.2946 14.9229 19.2455 15.0212C19.1964 15.1276 19.1146 15.2094 19.0655 15.2094C19.0082 15.2094 18.8035 14.8493 18.6153 14.4073C17.674 12.2873 17.4693 11.8126 17.4693 11.7553C17.4693 11.7143 17.5921 11.5834 17.7313 11.4524C18.0423 11.1823 17.9195 11.1414 19.1719 11.878ZM16.9455 12.2382C17.011 12.4101 17.101 12.6229 17.1419 12.7129C17.1829 12.803 17.5512 13.6051 17.9523 14.4973L18.6889 16.1262L18.6398 16.9201C18.6071 17.5013 18.6316 17.8942 18.7299 18.3689C18.8035 18.7209 18.9018 19.212 18.9509 19.4576C19.0655 20.0223 19.4583 20.4562 20.1868 20.8245C20.9399 21.2092 21.0708 21.4711 20.7271 21.9704C20.6207 22.1178 20.4078 22.3142 20.2359 22.4124L19.9331 22.5843L19.8349 22.2323C19.5975 21.3402 18.9591 20.4807 18.0996 19.8914C17.9277 19.7686 17.7313 19.5803 17.674 19.4657C17.5676 19.2775 16.9946 18.2216 16.4298 17.1739C15.6686 15.7824 15.5049 15.4468 15.5049 15.2749C15.5049 15.103 15.7013 14.1044 16.0369 12.5492C16.1024 12.2382 16.1597 11.9681 16.1597 11.9599C16.1597 11.9435 16.307 11.9353 16.4953 11.9353C16.7982 11.9353 16.8309 11.9599 16.9455 12.2382ZM22.0121 14.0635C22.0367 14.1044 22.094 14.35 22.1349 14.5955C22.3723 16.0607 21.2591 17.8614 19.9167 18.1888C19.663 18.2461 19.6221 18.1807 19.5484 17.5586C19.4911 17.0265 19.6875 16.1262 19.9822 15.6269C20.3014 15.0866 20.637 14.7347 21.2345 14.3418C21.783 13.9735 21.9303 13.9243 22.0121 14.0635ZM33.5697 15.1849C33.8398 15.9461 33.9953 16.5109 34.1672 17.3703C34.4291 18.6472 34.4373 18.6145 33.6188 19.6049C33.2177 20.0796 32.4974 20.9555 31.9981 21.553C31.507 22.1505 30.7867 23.0099 30.402 23.4683L29.7063 24.295H29.0924C28.3148 24.295 26.424 24.5078 25.7692 24.6634C25.1962 24.8025 25.1635 24.8107 25.1635 24.7207C25.1635 24.6552 27.1688 22.1178 27.3735 21.9213C27.398 21.8968 27.8564 21.3238 28.3966 20.6526C28.9368 19.9732 29.3952 19.4084 29.4198 19.3839C29.4443 19.3593 29.6817 19.0647 29.9518 18.7291C30.8276 17.6404 32.6366 15.4141 32.6857 15.3731C32.7184 15.3486 32.8576 15.1767 33.0131 14.9802C33.1604 14.792 33.3078 14.6528 33.3405 14.6774C33.3814 14.6938 33.4796 14.9229 33.5697 15.1849ZM7.90081 15.5859C8.44922 16.2244 8.67022 16.4863 8.85029 16.7237C8.89122 16.7646 9.41507 17.3949 10.0208 18.1152C10.6347 18.8355 11.2404 19.5558 11.3713 19.7195C11.5105 19.8832 11.9852 20.448 12.4354 20.98C15.3985 24.4915 15.5949 24.7452 15.4148 24.7698C15.3166 24.7861 14.9483 24.7616 14.58 24.7125C13.7287 24.5979 12.8447 24.5979 11.6824 24.7207L10.7493 24.8189L10.5365 24.5733C10.25 24.2623 7.77803 21.6594 6.91858 20.7754L6.24739 20.0796L6.2965 19.1956C6.32106 18.7045 6.41928 17.9187 6.50932 17.4358C6.73032 16.2817 7.14777 14.882 7.27055 14.882C7.28692 14.882 7.5734 15.2012 7.90081 15.5859ZM25.9165 19.1711C25.8756 19.5394 25.4581 20.2924 25.1062 20.6199C24.4186 21.2747 23.4364 21.643 22.6015 21.5448C22.3477 21.5202 22.1104 21.4629 22.0858 21.4138C22.0203 21.3156 22.4869 20.3661 22.7488 20.0469C23.3054 19.3921 24.5414 18.8764 25.4909 18.9173C25.9329 18.9337 25.941 18.9337 25.9165 19.1711ZM34.4128 20.4234C34.4128 21.4138 34.1426 23.0181 33.7825 24.1722C33.5942 24.778 33.5861 24.778 32.9967 24.6552C32.7184 24.5979 32.1045 24.5078 31.6298 24.4587C31.155 24.4014 30.7212 24.3441 30.6639 24.3278C30.5739 24.3032 31.1469 23.5256 31.7771 22.8217C31.8753 22.7071 32.481 21.9868 33.1277 21.2092C33.7661 20.4316 34.3145 19.8013 34.3555 19.7932C34.3882 19.7932 34.4128 20.0796 34.4128 20.4234ZM17.1419 20.4234C18.1078 20.8818 18.9591 21.9786 18.9754 22.7808L18.9836 23.1082L18.4516 23.0836C17.6822 23.0591 17.1419 22.8708 16.5853 22.4534C16.0369 22.0359 15.5949 21.4466 15.3003 20.7345C15.1529 20.3743 15.1284 20.227 15.202 20.1779C15.2593 20.1451 15.5949 20.1287 15.9551 20.1451C16.4871 20.1615 16.7245 20.2188 17.1419 20.4234ZM6.77125 21.512C6.86128 21.643 8.80118 23.6975 9.88163 24.8025C9.98804 24.9171 9.99623 24.9662 9.92256 24.9908C9.86526 25.0071 9.456 25.1381 9.02218 25.2773C8.58837 25.4164 8.12999 25.5801 7.99903 25.6456C7.53247 25.8911 7.48336 25.842 7.10684 24.7861C6.72213 23.7057 6.33743 22.0359 6.33743 21.4466C6.33743 21.2092 6.3538 21.1846 6.49295 21.2665C6.58299 21.3074 6.70576 21.422 6.77125 21.512ZM29.0105 25.0726C29.0105 25.1381 28.9778 25.1954 28.945 25.1954C28.9123 25.1954 28.8222 25.2936 28.7404 25.4164C28.6667 25.5474 28.4785 25.7929 28.323 25.973C28.1592 26.1449 27.7991 26.5787 27.5208 26.9307C26.9724 27.6019 26.8742 27.6592 26.0229 27.7737C25.8019 27.7983 25.098 27.9538 24.4677 28.1012C23.3627 28.3713 21.4555 28.6332 21.3491 28.535C21.3246 28.5104 21.3819 28.3303 21.4801 28.1339C21.6602 27.7983 21.6684 27.3563 21.5456 26.3413C21.521 26.1613 21.5538 26.1449 21.8894 26.1203C22.757 26.063 23.6328 25.9075 24.5496 25.6456C25.6382 25.3427 26.1048 25.2445 27.1279 25.1217C27.5126 25.0726 27.9137 25.0153 28.0283 24.999C28.5931 24.9171 29.0105 24.9498 29.0105 25.0726ZM31.5889 25.1217C32.7102 25.2527 33.2668 25.3837 33.2668 25.4983C33.2668 25.621 32.522 27.1189 32.3419 27.3645C32.2191 27.52 32.1209 27.5282 30.0828 27.5282C28.9041 27.5282 27.9464 27.5036 27.9464 27.4709C27.9464 27.4136 28.4539 26.7752 29.3952 25.662L29.9927 24.958L30.4593 24.999C30.7212 25.0235 31.2287 25.0726 31.5889 25.1217ZM14.9728 25.4082C15.5131 25.4737 16.3234 25.621 16.7736 25.7274C17.6085 25.9239 18.4598 26.0467 19.663 26.1449C20.3178 26.194 20.3587 26.2104 20.5061 26.4559C20.858 27.0371 20.7762 27.7246 20.2769 28.2649L19.9904 28.5759L19.2455 28.5186C18.8281 28.494 18.0505 28.3713 17.5103 28.2567C15.6768 27.872 15.3412 27.8147 14.4408 27.7656L13.5322 27.7083L12.5173 26.636C11.9607 26.0467 11.5023 25.5228 11.4941 25.4819C11.4859 25.2854 13.6632 25.2363 14.9728 25.4082ZM12.5582 27.7083C12.5582 27.7819 12.4354 27.8147 12.1981 27.8147C11.7642 27.8147 10.3973 28.0848 9.64426 28.314C9.34141 28.4122 9.07948 28.4531 9.04674 28.4122C8.43285 27.5036 7.88444 26.5623 7.91718 26.4805C7.97447 26.3413 8.94033 25.9566 9.82434 25.7274L10.5528 25.5392L11.5514 26.5787C12.0998 27.1435 12.55 27.6592 12.5582 27.7083ZM31.5479 28.4122C31.5479 28.5432 31.1223 29.067 30.4511 29.7546L29.96 30.2702H29.0924C28.2247 30.2702 26.5877 30.4421 25.9001 30.5977C25.6955 30.6468 25.0734 30.7941 24.5086 30.9332C23.4036 31.2034 22.0285 31.408 21.3246 31.4162C20.9399 31.4162 20.8417 31.3834 20.5306 31.1297C20.0313 30.7204 19.9331 30.3521 20.1705 29.8364C20.3833 29.3862 20.3587 29.3944 21.6438 29.3289C22.6424 29.2798 23.6656 29.1161 25.1225 28.7723C26.4649 28.4531 27.7827 28.3222 29.7717 28.314C31.196 28.3058 31.5479 28.3303 31.5479 28.4122ZM15.464 28.6659C15.8732 28.7314 16.6017 28.8788 17.101 28.9933C17.5921 29.1079 18.2633 29.2307 18.5825 29.2553C19.3519 29.3289 19.3847 29.3535 19.2292 29.7218C19.0655 30.1229 19.0736 30.5649 19.2701 30.9824C19.3519 31.1788 19.4011 31.3425 19.3683 31.3671C19.2537 31.4325 17.7313 31.187 16.6917 30.9332C14.6291 30.4339 12.9593 30.3112 11.797 30.5567C11.4941 30.6222 11.1995 30.6549 11.1422 30.6304C11.0849 30.614 10.7329 30.2784 10.3482 29.8937C9.84071 29.3617 9.69337 29.1734 9.78341 29.1243C9.9553 29.0343 11.2977 28.7232 11.8625 28.6414C12.6646 28.5268 14.6618 28.5432 15.464 28.6659ZM28.6831 31.2443C28.6831 31.408 27.2834 32.2838 26.203 32.7913C25.4254 33.1596 24.1321 33.5771 23.0762 33.7981C22.2823 33.97 21.9548 33.9945 20.3751 33.9945C18.7953 33.9945 18.4598 33.97 17.6412 33.7981C15.7504 33.4052 14.1707 32.7749 12.7628 31.8418L12.1899 31.4571L12.5991 31.3916C13.2294 31.2852 14.8746 31.4653 16.4462 31.8254C18.4434 32.2756 18.9836 32.3411 20.5388 32.3411C22.1349 32.3411 23.0844 32.2347 24.4677 31.8909C25.0079 31.76 25.5236 31.629 25.6136 31.6126C26.4403 31.4407 27.2098 31.318 27.8237 31.2607C28.2329 31.2279 28.5849 31.187 28.6258 31.1788C28.6585 31.1788 28.6831 31.2034 28.6831 31.2443Z" fill="black"/>
</svg>
