<svg width="85" height="36" viewBox="0 0 85 36" fill="none" xmlns="http://www.w3.org/2000/svg">
<path fill-rule="evenodd" clip-rule="evenodd" d="M74.0744 18.4753H85V21.9089H79.8138V35.6281H76.3652V21.9089H71.0127H62.9211C62.6822 21.9089 62.4555 21.9502 62.2459 22.0399C62.0362 22.1256 61.8548 22.2485 61.6986 22.4037C61.5424 22.5589 61.4184 22.7424 61.3318 22.9469C61.2421 23.1546 61.1957 23.3793 61.1957 23.6202C61.1957 23.857 61.2421 24.0817 61.3318 24.2944C61.4184 24.506 61.5424 24.6894 61.6986 24.8446C61.8548 24.9998 62.0362 25.1228 62.2459 25.2085C62.4555 25.2981 62.6822 25.3395 62.9211 25.3395H66.3829C67.0994 25.3395 67.7736 25.4735 68.4035 25.7436C69.0334 26.0086 69.5847 26.3765 70.0543 26.8421C70.5239 27.3067 70.8938 27.8539 71.1659 28.4788C71.433 29.1076 71.569 29.7728 71.569 30.4833C71.569 31.1938 71.433 31.8599 71.1659 32.4838C70.8938 33.1046 70.5239 33.6478 70.0543 34.1134C69.5847 34.583 69.0334 34.9499 68.4035 35.22C67.7736 35.4931 67.0994 35.6281 66.3829 35.6281H58.7014V32.1945H66.3829C66.6258 32.1945 66.8475 32.1492 67.0581 32.0635C67.2677 31.9738 67.4481 31.8559 67.6094 31.7007C67.7656 31.5455 67.8855 31.3611 67.9762 31.1535C68.0619 30.9489 68.1072 30.7242 68.1072 30.4833C68.1072 30.2465 68.0619 30.0227 67.9762 29.8141C67.8855 29.6055 67.7656 29.4261 67.6094 29.2709C67.4481 29.1157 67.2677 28.9938 67.0581 28.9081C66.8475 28.8174 66.6258 28.773 66.3829 28.773H62.9211C62.2086 28.773 61.5343 28.638 60.9085 28.3689C60.2827 28.0948 59.7314 27.728 59.2618 27.2624C58.7931 26.7927 58.4222 26.2495 58.1461 25.6206C57.875 24.9958 57.739 24.3266 57.739 23.6202C57.739 22.9097 57.875 22.2445 58.1461 21.6197C58.4222 20.9989 58.7931 20.4557 59.2618 19.986C59.7314 19.5204 60.2827 19.1536 60.9085 18.8795C61.5343 18.6104 62.2086 18.4753 62.9211 18.4753L68.3945 18.4763C68.4358 18.2657 68.5577 17.8495 68.6393 17.6802C69.7419 15.4126 69.881 11.1909 66.7366 10.7364C66.2841 10.6689 65.2451 10.8352 65.4577 11.4439C66.0926 13.264 65.1896 14.4986 63.5963 14.7495C61.0385 15.1526 59.7495 11.9004 62.3769 10.5429C62.8012 10.3252 64.0024 10.2759 64.1607 10.1821C64.9427 9.70242 65.5545 9.23682 64.2131 8.7954C63.8412 8.67547 62.3376 8.51019 62.2328 8.33382C62.0141 7.96497 62.1662 7.70899 62.5341 7.54875C62.6339 7.49735 63.034 7.32905 62.8697 7.16478C62.4273 6.94205 62.3003 6.94911 61.9042 6.5863C61.5938 6.30109 61.4426 5.98968 61.3368 5.58656C61.1776 4.96172 61.6734 4.03152 62.391 3.99826C62.6691 3.98819 63.037 4.06881 63.2778 4.21494C63.6497 4.43363 63.8462 4.72388 64.0508 5.09475C64.2242 5.42531 64.2534 5.92216 64.1879 6.29101C64.1022 6.77879 64.4479 7.08516 64.7533 7.39556C65.3811 8.03148 66.782 8.46081 67.6517 8.40941C67.6971 8.44267 68.0316 6.96019 67.7736 6.82918C67.438 6.65886 67.0138 6.76065 66.7034 6.51575C66.3557 6.23055 66.6207 5.79719 67.047 5.75788C67.3826 5.71959 68.7724 5.22778 67.9732 4.75311C67.7968 4.64829 66.5461 4.84885 66.0221 4.75714C65.0516 4.54248 64.466 3.78461 64.4509 2.77782C64.4429 2.09755 64.6525 1.61481 65.0828 1.08269C65.7953 0.414521 66.6469 0.00132382 67.6557 0.302657C68.3209 0.500186 68.7905 0.976875 68.976 1.65613C69.109 2.13988 69.1725 2.6075 69.114 3.11543C69.0949 3.29079 69.1009 3.43087 69.1715 3.59413C69.5081 4.39836 70.3879 2.58835 70.526 2.07739C71.6013 -2.05862 75.5448 1.70652 72.0054 3.58607C71.2657 3.97912 70.5955 4.77125 70.2579 5.87882C70.1158 6.58428 69.9555 6.9612 70.0079 7.67674C70.0805 8.63113 70.6388 9.43938 71.1125 10.2406C71.3997 10.5903 71.9762 11.4106 72.3803 11.589C72.6373 11.3885 72.9034 11.2212 73.1654 11.0025C73.5856 10.6467 74.4443 9.44745 74.4312 8.9123C74.4161 8.41244 74.4826 8.02342 74.0009 7.70294C73.3246 7.09927 71.2496 7.97303 71.1185 5.78711C71.0631 4.82164 72.3884 4.14036 73.3468 4.86598C73.7187 5.15119 73.9001 5.82238 74.1057 6.22853C74.2871 6.58025 74.8262 6.52785 74.9714 6.33536C75.2153 6.00883 75.1034 5.63796 75.0197 5.26709C74.92 4.84381 74.9008 4.32479 74.9381 3.89849C74.9966 3.21419 75.4571 2.54098 76.0366 2.18623C76.9779 1.6138 78.3294 1.6007 79.0651 2.49765C79.4551 3.10535 79.6355 3.73724 79.4974 4.45883C79.053 6.7808 77.5342 6.30008 76.3097 6.88561C75.6768 7.27866 75.4128 9.45148 75.8663 9.80925C76.1767 10.0572 77.6551 9.5573 77.9283 9.18239C78.3394 8.35902 78.8181 7.36936 79.7937 7.08919C83.0318 6.18217 85.0957 12.101 78.8806 10.7223C78.6287 10.7012 78.0925 10.8443 77.9373 11.0861C77.8637 11.2302 78.2538 11.3794 78.539 11.6828C78.7375 11.9458 78.6771 12.4265 78.1076 12.3197C77.3296 12.1756 76.6121 11.8853 75.8139 12.3005C75.3604 12.5031 74.9945 12.747 74.6529 13.1108C73.5373 14.302 73.2793 15.5074 73.7025 17.0684C73.9464 17.8041 74.1359 18.2758 74.0744 18.4753ZM3.45676 17.3778H0V0.225054H12.1057V3.65863H3.45676V7.08818H8.64391V10.5228H3.45676V17.3778ZM29.4097 8.873C29.4097 9.68529 29.3028 10.4694 29.0892 11.2242C28.8745 11.976 28.5792 12.6825 28.1912 13.3396C27.8052 13.9967 27.3396 14.5973 26.7924 15.1405C26.2442 15.6837 25.6435 16.1483 24.9854 16.5323C24.3223 16.9203 23.6148 17.2186 22.8489 17.4302C22.088 17.6429 21.2928 17.7487 20.4735 17.7487C19.6552 17.7487 18.865 17.6429 18.1031 17.4302C17.3463 17.2186 16.6338 16.9203 15.9716 16.5323C15.3085 16.1483 14.7038 15.6837 14.1556 15.1405C13.6083 14.5973 13.1387 13.9967 12.7487 13.3396C12.3607 12.6825 12.0604 11.976 11.8467 11.2242C11.632 10.4694 11.5252 9.68529 11.5252 8.873C11.5252 8.06071 11.632 7.27261 11.8467 6.51676C12.0604 5.75788 12.3607 5.05142 12.7487 4.39836C13.1387 3.7443 13.6083 3.14869 14.1556 2.60548C14.7038 2.06228 15.3085 1.6007 15.9716 1.21774C16.6338 0.833767 17.3463 0.535458 18.1031 0.326843C18.865 0.115204 19.6552 0.00837708 20.4735 0.00837708C21.2928 0.00837708 22.088 0.115204 22.8489 0.326843C23.6148 0.535458 24.3223 0.833767 24.9854 1.21774C25.6435 1.6007 26.2442 2.06228 26.7924 2.60548C27.3396 3.14869 27.8052 3.7443 28.1912 4.39836C28.5792 5.05142 28.8745 5.75788 29.0892 6.51676C29.3028 7.27261 29.4097 8.06071 29.4097 8.873ZM25.9731 8.873C25.9731 8.12118 25.8289 7.41471 25.5367 6.74956C25.2485 6.08441 24.8574 5.50392 24.3636 5.01413C23.8698 4.52434 23.2853 4.13633 22.6141 3.84709C21.9439 3.56088 21.2314 3.41777 20.4735 3.41777C19.7086 3.41777 18.9961 3.56088 18.3299 3.84709C17.6587 4.13633 17.0782 4.52434 16.5803 5.01413C16.0825 5.50392 15.6874 6.08441 15.3992 6.74956C15.1069 7.41471 14.9628 8.12118 14.9628 8.873C14.9628 9.62381 15.1069 10.3262 15.3992 10.9833C15.6874 11.6414 16.0825 12.2169 16.5803 12.7107C17.0782 13.2086 17.6587 13.5966 18.3299 13.8868C18.9961 14.173 19.7086 14.3151 20.4735 14.3151C21.2314 14.3151 21.9439 14.173 22.6141 13.8868C23.2853 13.5966 23.8698 13.2086 24.3636 12.7107C24.8574 12.2169 25.2485 11.6414 25.5367 10.9833C25.8289 10.3262 25.9731 9.62381 25.9731 8.873ZM34.099 3.65863V10.5228H37.5608C38.0385 10.5228 38.4829 10.4331 38.9021 10.2527C39.3184 10.0733 39.6842 9.82839 39.9976 9.51799C40.31 9.20759 40.557 8.84377 40.7384 8.42352C40.9188 8.0073 41.0095 7.56185 41.0095 7.08818C41.0095 6.61855 40.9188 6.17411 40.7384 5.75788C40.557 5.33662 40.31 4.97382 39.9976 4.66341C39.6842 4.35301 39.3184 4.10408 38.9021 3.92872C38.4829 3.74833 38.0385 3.65863 37.5608 3.65863H34.099ZM34.099 17.3778H30.6412V0.225054H37.5608C38.1987 0.225054 38.8074 0.306685 39.396 0.469949C39.9805 0.633213 40.5287 0.866016 41.0427 1.16433C41.5537 1.46263 42.0183 1.82141 42.4385 2.23763C42.8618 2.65889 43.2246 3.1245 43.5249 3.63445C43.8253 4.1444 44.0601 4.69163 44.2243 5.27213C44.3896 5.85564 44.4713 6.45932 44.4713 7.08818C44.4713 7.68077 44.3977 8.25623 44.2485 8.81152C44.1014 9.37085 43.8867 9.90197 43.6106 10.4038C43.3314 10.9057 42.9938 11.3673 42.5907 11.7926C42.1876 12.2129 41.7391 12.5797 41.2402 12.8901L43.1581 17.3778H39.4786L37.9719 13.9191L34.099 13.9443V17.3778ZM49.1595 17.3778H45.7028V0.225054H49.1595V8.79943L55.6014 0.225054H59.5328L54.0706 7.46006L59.5328 17.3778H55.6014L51.803 10.4401L49.1595 13.9443V17.3778ZM3.45676 35.6281H0V18.4753H12.1057V21.9089H3.45676V25.3395H8.64391V28.773H3.45676V35.6281ZM29.4097 27.1233C29.4097 27.9356 29.3028 28.7196 29.0892 29.4755C28.8745 30.2263 28.5792 30.9328 28.1912 31.5899C27.8052 32.2479 27.3396 32.8476 26.7924 33.3908C26.2442 33.934 25.6435 34.3996 24.9854 34.7826C24.3223 35.1706 23.6148 35.4689 22.8489 35.6815C22.088 35.8932 21.2928 36 20.4735 36C19.6552 36 18.865 35.8932 18.1031 35.6815C17.3463 35.4689 16.6338 35.1706 15.9716 34.7826C15.3085 34.3996 14.7038 33.934 14.1556 33.3908C13.6083 32.8476 13.1387 32.2479 12.7487 31.5899C12.3607 30.9328 12.0604 30.2263 11.8467 29.4755C11.632 28.7196 11.5252 27.9356 11.5252 27.1233C11.5252 26.311 11.632 25.5229 11.8467 24.767C12.0604 24.0082 12.3607 23.3017 12.7487 22.6486C13.1387 21.9956 13.6083 21.399 14.1556 20.8568C14.7038 20.3136 15.3085 19.851 15.9716 19.468C16.6338 19.084 17.3463 18.7857 18.1031 18.5771C18.865 18.3655 19.6552 18.2597 20.4735 18.2597C21.2928 18.2597 22.088 18.3655 22.8489 18.5771C23.6148 18.7857 24.3223 19.084 24.9854 19.468C25.6435 19.851 26.2442 20.3136 26.7924 20.8568C27.3396 21.399 27.8052 21.9956 28.1912 22.6486C28.5792 23.3017 28.8745 24.0082 29.0892 24.767C29.3028 25.5229 29.4097 26.311 29.4097 27.1233ZM25.9731 27.1233C25.9731 26.3725 25.8289 25.666 25.5367 24.9998C25.2485 24.3347 24.8574 23.7552 24.3636 23.2654C23.8698 22.7756 23.2853 22.3876 22.6141 22.0974C21.9439 21.8112 21.2314 21.6691 20.4735 21.6691C19.7086 21.6691 18.9961 21.8112 18.3299 22.0974C17.6587 22.3876 17.0782 22.7756 16.5803 23.2654C16.0825 23.7552 15.6874 24.3347 15.3992 24.9998C15.1069 25.666 14.9628 26.3725 14.9628 27.1233C14.9628 27.8751 15.1069 28.5765 15.3992 29.2346C15.6874 29.8917 16.0825 30.4672 16.5803 30.961C17.0782 31.4599 17.6587 31.8468 18.3299 32.1371C18.9961 32.4233 19.7086 32.5664 20.4735 32.5664C21.2314 32.5664 21.9439 32.4233 22.6141 32.1371C23.2853 31.8468 23.8698 31.4599 24.3636 30.961C24.8574 30.4672 25.2485 29.8917 25.5367 29.2346C25.8289 28.5765 25.9731 27.8751 25.9731 27.1233ZM34.099 21.9089V28.773H37.5608C38.0385 28.773 38.4829 28.6834 38.9021 28.503C39.3184 28.3236 39.6842 28.0787 39.9976 27.7683C40.31 27.4579 40.557 27.0951 40.7384 26.6738C40.9188 26.2576 41.0095 25.8121 41.0095 25.3395C41.0095 24.8698 40.9188 24.4244 40.7384 24.0082C40.557 23.5869 40.31 23.2241 39.9976 22.9137C39.6842 22.6033 39.3184 22.3544 38.9021 22.179C38.4829 21.9996 38.0385 21.9089 37.5608 21.9089H34.099ZM34.099 35.6281H30.6412V18.4753H37.5608C38.1987 18.4753 38.8074 18.558 39.396 18.7212C39.9805 18.8835 40.5287 19.1173 41.0427 19.4146C41.5537 19.7129 42.0183 20.0717 42.4385 20.4889C42.8618 20.9092 43.2246 21.3748 43.5249 21.8847C43.8253 22.3957 44.0601 22.9429 44.2243 23.5224C44.3896 24.1059 44.4713 24.7106 44.4713 25.3395C44.4713 25.931 44.3977 26.5065 44.2485 27.0618C44.1014 27.6211 43.8867 28.1522 43.6106 28.6541C43.3314 29.157 42.9938 29.6186 42.5907 30.0429C42.1876 30.4631 41.7391 30.831 41.2402 31.1414L43.1581 35.6281H39.4786L37.9719 32.1703L34.099 32.1945V35.6281ZM57.5576 35.6281H45.7028V18.4753H57.5576V21.9089H49.1595V25.3395H54.8405V28.773H49.1595V32.1945H57.5576V35.6281Z" fill="black"/>
</svg>
