<svg width="80" height="40" viewBox="0 0 80 40" fill="none" xmlns="http://www.w3.org/2000/svg">
<path d="M54.9565 34.9686C53.8491 34.9686 52.8222 34.792 51.8769 34.44C50.9326 34.088 50.1146 33.5878 49.4238 32.9415C48.7331 32.2952 48.1957 31.5345 47.8117 30.6605C47.4266 29.7853 47.2351 28.8317 47.2351 27.8007C47.2351 26.7697 47.4298 25.803 47.8214 24.941C48.212 24.08 48.7494 23.3226 49.4336 22.6698C50.1179 22.0169 50.9326 21.5145 51.8769 21.1614C52.8222 20.8094 53.8491 20.6328 54.9565 20.6328C56.0639 20.6328 57.1072 20.8094 58.0449 21.1614C58.5529 21.3521 59.025 21.5875 59.458 21.8665V22.6807L60.499 22.6883C60.7558 22.9357 60.9929 23.1983 61.2083 23.4751L59.458 23.4642V25.3202L61.2192 25.3311L61.217 27.8814H62.678C62.6747 28.2203 62.6497 28.5505 62.6051 28.8731H60.5404V32.8924L60.4882 32.9415C59.7985 33.5878 58.9837 34.088 58.0449 34.44C57.1072 34.792 56.077 34.9686 54.9565 34.9686ZM54.937 31.2283C55.3797 31.2283 55.7876 31.1498 56.1586 30.9929C56.5295 30.8359 56.8559 30.6114 57.1365 30.3172C57.4161 30.024 57.6348 29.6643 57.7914 29.2404C57.947 28.8164 58.0253 28.3358 58.0253 27.8007C58.0253 27.2656 57.947 26.7861 57.7914 26.361C57.6348 25.9371 57.4161 25.5774 57.1365 25.2843C56.8559 24.99 56.5328 24.7655 56.1684 24.6086C55.804 24.4516 55.3993 24.3732 54.9565 24.3732C54.5138 24.3732 54.1254 24.4516 53.7545 24.6086C53.3824 24.7655 53.0572 24.99 52.7765 25.2843C52.4969 25.5774 52.2783 25.9371 52.1216 26.361C51.965 26.7861 51.8878 27.2656 51.8878 27.8007C51.8878 28.3358 51.965 28.8164 52.1216 29.2404C52.2783 29.6643 52.4969 30.024 52.7765 30.3172C53.0572 30.6114 53.3792 30.8359 53.7447 30.9929C54.1091 31.1498 54.5062 31.2283 54.937 31.2283Z" fill="black"/>
<path d="M41.5252 32.2375L42.4347 34.6002H47.1896L41.2261 20.9326H36.704L30.7405 34.6002H35.4182L36.3265 32.2364H41.5252V32.2375ZM37.6352 28.8884L38.9112 25.4162L40.2209 28.8927L37.6352 28.8884Z" fill="black"/>
<path d="M20.8618 31.0506V24.5682H22.7905C23.4541 24.5682 24.0252 24.6914 24.506 24.9388C24.9869 25.1862 25.3632 25.5513 25.6363 26.0319C25.9093 26.5136 26.0453 27.1065 26.0453 27.8094C26.0453 28.5124 25.9093 29.0878 25.6363 29.576C25.3632 30.0643 24.9869 30.4327 24.506 30.6801C24.0252 30.9264 23.4541 31.0506 22.7905 31.0506H20.8618ZM16.2625 34.6427H22.9863C24.506 34.6427 25.8441 34.367 27.0004 33.8133C28.1568 33.2597 29.0597 32.4728 29.7102 31.4506C30.3597 30.4294 30.6838 29.2153 30.6838 27.8094C30.6838 26.4035 30.3597 25.1731 29.7102 24.1585C29.0597 23.1427 28.1568 22.358 27.0004 21.8055C25.8441 21.2519 24.506 20.975 22.9863 20.975H16.2625V34.6427Z" fill="black"/>
<path d="M59.2373 10.2467L63.7344 5.28137H68.758L63.2318 11.257L69.0321 18.9915H63.6953L60.2718 14.4644L59.2373 15.5967V18.9915H54.7021V5.28137H59.2373V10.2467Z" fill="black"/>
<path d="M44.8517 12.0079V8.85713H46.4921C47.1296 8.85713 47.5767 8.97811 47.8824 9.26473C48.187 9.55136 48.3404 9.94152 48.3404 10.4363C48.3404 10.9311 48.187 11.3213 47.8824 11.6079C47.5767 11.8945 47.1057 12.0373 46.4693 12.0373L44.8517 12.0079ZM50.3822 14.7488C51.1502 14.3728 51.7681 13.8366 52.2185 13.1598C52.7254 12.398 52.9789 11.4902 52.9789 10.4363C52.9789 9.38244 52.7254 8.46697 52.2185 7.69319C51.7116 6.91831 50.9936 6.32326 50.0646 5.90585C49.1356 5.48953 48.0347 5.28137 46.7619 5.28137H40.1936V18.949H44.793L44.7658 15.5128L46.0505 15.4986L48.36 18.949H53.2715L50.3822 14.7488Z" fill="black"/>
<path d="M37.8713 9.27782C37.4807 8.41576 36.9423 7.65832 36.258 7.00551C35.5738 6.35269 34.7633 5.85028 33.8245 5.49717C32.8857 5.14515 31.8567 4.9686 30.7362 4.9686C29.6157 4.9686 28.6019 5.14515 27.6565 5.49717C26.7123 5.85028 25.8975 6.35269 25.2133 7.00551C24.529 7.65832 23.9916 8.41576 23.6011 9.27782C23.2095 10.1388 23.0137 11.0924 23.0137 12.1365C23.0137 13.1805 23.2062 14.1211 23.5913 14.9962C23.9753 15.8703 24.5127 16.631 25.2035 17.2772C25.8942 17.9235 26.7123 18.4238 27.6565 18.7758C28.6019 19.1278 29.6277 19.3043 30.7362 19.3043C31.8567 19.3043 32.8857 19.1278 33.8245 18.7758C34.7633 18.4238 35.577 17.9235 36.2678 17.2772C36.9586 16.631 37.4971 15.8703 37.8811 14.9962C38.2651 14.1211 38.4576 13.1685 38.4576 12.1365C38.4576 11.1044 38.2618 10.1388 37.8713 9.27782ZM33.57 13.5761C33.4144 14.0001 33.1958 14.3597 32.9151 14.6529C32.6355 14.9472 32.3092 15.1717 31.9382 15.3286C31.5673 15.4855 31.1594 15.564 30.7166 15.564C30.2739 15.564 29.8888 15.4855 29.5243 15.3286C29.1588 15.1717 28.8368 14.9472 28.5562 14.6529C28.2755 14.3597 28.0579 14.0001 27.9013 13.5761C27.7447 13.1522 27.6674 12.6716 27.6674 12.1365C27.6674 11.6014 27.7447 11.1218 27.9013 10.6968C28.0579 10.2728 28.2755 9.9132 28.5562 9.62003C28.8368 9.32577 29.1621 9.10127 29.5341 8.94433C29.9051 8.78739 30.3054 8.70893 30.7362 8.70893C31.167 8.70893 31.5836 8.78739 31.948 8.94433C32.3125 9.10127 32.6355 9.32577 32.9151 9.62003C33.1958 9.9132 33.4144 10.2728 33.57 10.6968C33.7266 11.1218 33.805 11.6014 33.805 12.1365C33.805 12.6716 33.7266 13.1522 33.57 13.5761Z" fill="black"/>
<path d="M11.7612 9.78568L11.759 12.3348L22.0064 12.337L21.9999 11.1077L16.3301 11.1087L16.3399 8.76014H22.8016V5.28574L11.7601 5.28792L10 5.27811V7.1341L11.7601 7.14827V7.92969L10 7.91879V9.77369L11.7612 9.78568Z" fill="#FFC000"/>
<path d="M11.0825 13.3276L21.3288 13.3244V13.5957V14.6627L15.6623 14.6605V18.9719H11.0825V13.3276Z" fill="#FFC000"/>
</svg>
