<svg width="27" height="25" viewBox="0 0 27 25" fill="none" xmlns="http://www.w3.org/2000/svg">
<path d="M17.127 4.26966C17.127 4.30337 16.6619 4.80225 16.0888 5.3618L15.0506 6.39326L14.5248 5.85393C14.2417 5.5573 13.9652 5.31461 13.9248 5.31461C13.8843 5.31461 12.7113 6.46067 11.3158 7.85618C8.84839 10.3371 8.78098 10.418 8.50457 10.9775C8.14727 11.7258 8.0057 12.2854 8.0057 13.0337C7.99896 13.809 8.10008 14.227 8.47761 15.0225L8.78098 15.6629L11.3158 18.2045C12.7113 19.6067 13.8843 20.7528 13.9248 20.7528C14.0529 20.7528 18.9136 15.8112 19.1697 15.4202C19.5742 14.7933 19.7697 14.1056 19.8102 13.2022C19.8372 12.5483 19.8169 12.3326 19.6956 11.8944C19.554 11.3753 19.3181 10.8427 19.2372 10.8427C19.2102 10.8427 18.6304 11.3955 17.9428 12.0764C16.5675 13.4315 16.2911 13.6202 15.4551 13.7618C14.6596 13.8899 13.527 13.5663 13.0484 13.0674L12.8866 12.8989L16.1226 9.66292L19.3518 6.42697L20.2484 7.33708C22.0214 9.14382 22.7495 10.6472 22.8372 12.7034C22.8641 13.391 22.8506 13.7416 22.7563 14.2539C22.5405 15.4607 22.0079 16.6809 21.2866 17.6112C20.9428 18.0494 14.0192 25 13.9248 25C13.8843 25 12.2124 23.3551 10.2102 21.3393C6.37424 17.4899 6.19896 17.2876 5.66637 16.1416C5.23491 15.2247 5.05963 14.4697 5.01244 13.3371C4.98547 12.582 4.99896 12.2247 5.0866 11.773C5.22143 11.0652 5.47761 10.2831 5.75401 9.73034C6.23941 8.75281 6.56974 8.38202 10.2776 4.65393L13.9248 1L15.5226 2.59775C16.4057 3.4809 17.127 4.22921 17.127 4.26966Z" fill="black"/>
</svg>
