<svg width="41" height="40" viewBox="0 0 41 40" fill="none" xmlns="http://www.w3.org/2000/svg">
<path d="M25.0934 8.40709C25.0934 8.44922 24.5119 9.07282 23.7956 9.77225L22.4979 11.0616L21.8406 10.3874C21.4866 10.0166 21.1411 9.71327 21.0906 9.71327C21.04 9.71327 19.5737 11.1459 17.8293 12.8902C14.7451 15.9914 14.6608 16.0925 14.3153 16.7919C13.8687 17.7273 13.6917 18.4267 13.6917 19.3621C13.6833 20.3312 13.8097 20.8537 14.2816 21.8481L14.6608 22.6487L17.8293 25.8256C19.5737 27.5784 21.04 29.011 21.0906 29.011C21.2507 29.011 27.3265 22.8341 27.6467 22.3453C28.1524 21.5616 28.3967 20.702 28.4473 19.5728C28.481 18.7554 28.4557 18.4857 28.3041 17.938C28.1271 17.2891 27.8321 16.6234 27.731 16.6234C27.6973 16.6234 26.9726 17.3144 26.113 18.1655C24.3939 19.8593 24.0484 20.0953 23.0035 20.2723C22.0091 20.4324 20.5934 20.0279 19.9951 19.4043L19.7928 19.1936L23.8378 15.1487L27.8743 11.1037L28.9951 12.2414C31.2114 14.4998 32.1215 16.379 32.231 18.9492C32.2647 19.8088 32.2479 20.247 32.1299 20.8874C31.8602 22.3959 31.1945 23.9211 30.2928 25.0841C29.863 25.6318 21.2085 34.32 21.0906 34.32C21.04 34.32 18.9501 32.2638 16.4473 29.7442C11.6524 24.9324 11.4333 24.6796 10.7675 23.247C10.2282 22.1009 10.0091 21.1571 9.95012 19.7414C9.91641 18.7975 9.93327 18.3509 10.0428 17.7863C10.2114 16.9015 10.5316 15.9239 10.8771 15.2329C11.4838 14.011 11.8967 13.5475 16.5316 8.88742L21.0906 4.32001L23.0878 6.3172C24.1917 7.42113 25.0934 8.35653 25.0934 8.40709Z" fill="black"/>
</svg>
