<svg width="25" height="25" viewBox="0 0 25 25" fill="none" xmlns="http://www.w3.org/2000/svg">
<g clip-path="url(#clip0_102_172)">
<path d="M12.5 0C5.59792 0 0 5.59688 0 12.5C0 18.0229 3.58125 22.7083 8.54896 24.3615C9.17292 24.4771 9.375 24.0896 9.375 23.7604V21.4333C5.89792 22.1896 5.17396 19.9583 5.17396 19.9583C4.60521 18.5135 3.78542 18.1292 3.78542 18.1292C2.65104 17.3531 3.87187 17.3698 3.87187 17.3698C5.12708 17.4573 5.7875 18.6583 5.7875 18.6583C6.90208 20.5688 8.71146 20.0167 9.425 19.6969C9.53646 18.8896 9.86042 18.3375 10.2188 18.026C7.44271 17.7083 4.52396 16.6365 4.52396 11.8479C4.52396 10.4823 5.0125 9.36771 5.81146 8.49271C5.68229 8.17708 5.25417 6.90521 5.93333 5.18438C5.93333 5.18438 6.98333 4.84896 9.37187 6.46563C10.3687 6.18854 11.4375 6.05 12.5 6.04479C13.5625 6.05 14.6323 6.18854 15.6312 6.46563C18.0177 4.84896 19.0656 5.18438 19.0656 5.18438C19.7458 6.90625 19.3177 8.17813 19.1885 8.49271C19.9906 9.36771 20.475 10.4833 20.475 11.8479C20.475 16.649 17.551 17.7063 14.7677 18.0156C15.2156 18.4031 15.625 19.1635 15.625 20.3302V23.7604C15.625 24.0927 15.825 24.4833 16.4594 24.3604C21.4229 22.7052 25 18.0208 25 12.5C25 5.59688 19.4031 0 12.5 0Z" fill="black"/>
</g>
<defs>
<clipPath id="clip0_102_172">
<rect width="25" height="25" fill="white"/>
</clipPath>
</defs>
</svg>
