<svg width="25" height="25" viewBox="0 0 25 25" fill="none" xmlns="http://www.w3.org/2000/svg">
<g clip-path="url(#clip0_102_174)">
<path d="M10.8471 11.5313C10.5261 12.0712 5.51761 12.1619 2.78525 10.6306C0.0528966 9.09935 1.38038 4.41731 4.1518 3.18787C6.92322 1.95842 11.1682 10.9916 10.8471 11.5313Z" fill="black"/>
<path d="M10.8092 13.4051C11.1303 13.9449 8.70706 18.2005 5.97468 19.7318C3.24233 21.2631 -0.271136 17.8061 0.0176915 14.8617C0.30652 11.9172 10.4881 12.8652 10.8092 13.4051Z" fill="black"/>
<path d="M12.462 14.3738C13.1042 14.3738 15.6893 18.5387 15.6893 21.6013C15.6893 24.6638 10.8484 25.8889 8.36579 24.1739C5.88319 22.4589 11.8199 14.3737 12.462 14.3738Z" fill="black"/>
<path d="M14.1529 13.4691C14.474 12.9291 19.4825 12.8385 22.2148 14.3698C24.9472 15.9011 23.6197 20.5831 20.8483 21.8125C18.0768 23.0419 13.8319 14.0089 14.1529 13.4691Z" fill="black"/>
<path d="M14.1908 11.5949C13.8697 11.055 16.2929 6.7994 19.0253 5.26808C21.7577 3.7368 25.2711 7.19378 24.9824 10.1382C24.6935 13.0827 14.5119 12.1347 14.1908 11.5949Z" fill="black"/>
<path d="M12.5378 10.6262C11.8956 10.6262 9.31055 6.46127 9.31055 3.39871C9.31055 0.336139 14.1515 -0.888943 16.634 0.8261C19.1167 2.54114 13.18 10.6263 12.5378 10.6262Z" fill="black"/>
</g>
<defs>
<clipPath id="clip0_102_174">
<rect width="25" height="25" fill="white"/>
</clipPath>
</defs>
</svg>
